<mxfile host="Electron" agent="Mozilla/5.0 (Macintosh; Intel Mac OS X 10_15_7) AppleWebKit/537.36 (KHTML, like Gecko) draw.io/24.7.17 Chrome/128.0.6613.36 Electron/32.0.1 Safari/537.36" version="24.7.17">
  <diagram name="Page-1" id="n5KT-9cH6RLNdcrdqvtw">
    <mxGraphModel dx="763" dy="495" grid="1" gridSize="10" guides="1" tooltips="1" connect="1" arrows="1" fold="1" page="1" pageScale="1" pageWidth="827" pageHeight="1169" math="0" shadow="0">
      <root>
        <mxCell id="0" />
        <mxCell id="1" parent="0" />
        <mxCell id="BydsjGx3QfzsrQC-a__q-5" value="Projection" style="rounded=1;whiteSpace=wrap;html=1;fillColor=#bac8d3;strokeColor=#23445d;strokeWidth=3;" vertex="1" parent="1">
          <mxGeometry x="80" y="690" width="80" height="30" as="geometry" />
        </mxCell>
        <mxCell id="BydsjGx3QfzsrQC-a__q-35" value="Projection" style="rounded=1;whiteSpace=wrap;html=1;fillColor=#fad9d5;strokeColor=#ae4132;strokeWidth=3;" vertex="1" parent="1">
          <mxGeometry x="180" y="690" width="80" height="30" as="geometry" />
        </mxCell>
        <mxCell id="BydsjGx3QfzsrQC-a__q-36" value="Projection" style="rounded=1;whiteSpace=wrap;html=1;fillColor=#bac8d3;strokeColor=#23445d;strokeWidth=3;" vertex="1" parent="1">
          <mxGeometry x="280" y="690" width="80" height="30" as="geometry" />
        </mxCell>
        <mxCell id="BydsjGx3QfzsrQC-a__q-37" value="Projection" style="rounded=1;whiteSpace=wrap;html=1;fillColor=#fad9d5;strokeColor=#ae4132;strokeWidth=3;" vertex="1" parent="1">
          <mxGeometry x="380" y="690" width="80" height="30" as="geometry" />
        </mxCell>
        <mxCell id="BydsjGx3QfzsrQC-a__q-42" style="edgeStyle=orthogonalEdgeStyle;rounded=0;orthogonalLoop=1;jettySize=auto;html=1;strokeWidth=2;" edge="1" parent="1" source="BydsjGx3QfzsrQC-a__q-38">
          <mxGeometry relative="1" as="geometry">
            <mxPoint x="120" y="720" as="targetPoint" />
          </mxGeometry>
        </mxCell>
        <mxCell id="BydsjGx3QfzsrQC-a__q-38" value="User &lt;i&gt;u&lt;/i&gt;&lt;div&gt;Embeddings&lt;/div&gt;" style="text;html=1;align=center;verticalAlign=middle;resizable=0;points=[];autosize=1;rounded=1;fillColor=#f5f5f5;fontColor=#333333;strokeColor=#666666;" vertex="1" parent="1">
          <mxGeometry x="75" y="740" width="90" height="40" as="geometry" />
        </mxCell>
        <mxCell id="BydsjGx3QfzsrQC-a__q-43" style="edgeStyle=orthogonalEdgeStyle;rounded=0;orthogonalLoop=1;jettySize=auto;html=1;strokeWidth=2;" edge="1" parent="1" source="BydsjGx3QfzsrQC-a__q-39">
          <mxGeometry relative="1" as="geometry">
            <mxPoint x="220" y="720" as="targetPoint" />
          </mxGeometry>
        </mxCell>
        <mxCell id="BydsjGx3QfzsrQC-a__q-39" value="Item &lt;i&gt;i&lt;/i&gt;&lt;div&gt;Embeddings&lt;/div&gt;" style="text;html=1;align=center;verticalAlign=middle;resizable=0;points=[];autosize=1;rounded=1;fillColor=#f5f5f5;fontColor=#333333;strokeColor=#666666;" vertex="1" parent="1">
          <mxGeometry x="175" y="740" width="90" height="40" as="geometry" />
        </mxCell>
        <mxCell id="BydsjGx3QfzsrQC-a__q-44" style="edgeStyle=orthogonalEdgeStyle;rounded=0;orthogonalLoop=1;jettySize=auto;html=1;strokeWidth=2;" edge="1" parent="1" source="BydsjGx3QfzsrQC-a__q-40">
          <mxGeometry relative="1" as="geometry">
            <mxPoint x="320" y="720" as="targetPoint" />
          </mxGeometry>
        </mxCell>
        <mxCell id="BydsjGx3QfzsrQC-a__q-40" value="User Aspects&lt;div&gt;Embeddings&lt;/div&gt;" style="text;html=1;align=center;verticalAlign=middle;resizable=0;points=[];autosize=1;rounded=1;fillColor=#f5f5f5;fontColor=#333333;strokeColor=#666666;" vertex="1" parent="1">
          <mxGeometry x="275" y="740" width="90" height="40" as="geometry" />
        </mxCell>
        <mxCell id="BydsjGx3QfzsrQC-a__q-45" style="edgeStyle=orthogonalEdgeStyle;rounded=0;orthogonalLoop=1;jettySize=auto;html=1;strokeWidth=2;" edge="1" parent="1" source="BydsjGx3QfzsrQC-a__q-41">
          <mxGeometry relative="1" as="geometry">
            <mxPoint x="420" y="720" as="targetPoint" />
          </mxGeometry>
        </mxCell>
        <mxCell id="BydsjGx3QfzsrQC-a__q-41" value="Item Aspects&lt;div&gt;Embeddings&lt;/div&gt;" style="text;html=1;align=center;verticalAlign=middle;resizable=0;points=[];autosize=1;rounded=1;fillColor=#f5f5f5;fontColor=#333333;strokeColor=#666666;" vertex="1" parent="1">
          <mxGeometry x="375" y="740" width="90" height="40" as="geometry" />
        </mxCell>
        <mxCell id="BydsjGx3QfzsrQC-a__q-53" value="&lt;span style=&quot;text-wrap: nowrap;&quot;&gt;Tokens&amp;nbsp;&lt;/span&gt;&lt;span style=&quot;text-wrap: nowrap; background-color: initial;&quot;&gt;Embeddings&lt;/span&gt;" style="rounded=1;whiteSpace=wrap;html=1;fillColor=#f5f5f5;strokeColor=#666666;strokeWidth=1;fontColor=#333333;" vertex="1" parent="1">
          <mxGeometry x="80" y="640" width="380" height="30" as="geometry" />
        </mxCell>
        <mxCell id="BydsjGx3QfzsrQC-a__q-57" style="edgeStyle=orthogonalEdgeStyle;rounded=0;orthogonalLoop=1;jettySize=auto;html=1;exitX=0.5;exitY=0;exitDx=0;exitDy=0;entryX=0.101;entryY=1.019;entryDx=0;entryDy=0;entryPerimeter=0;endArrow=none;endFill=0;strokeWidth=2;" edge="1" parent="1" source="BydsjGx3QfzsrQC-a__q-5" target="BydsjGx3QfzsrQC-a__q-53">
          <mxGeometry relative="1" as="geometry" />
        </mxCell>
        <mxCell id="BydsjGx3QfzsrQC-a__q-58" style="edgeStyle=orthogonalEdgeStyle;rounded=0;orthogonalLoop=1;jettySize=auto;html=1;exitX=0.5;exitY=0;exitDx=0;exitDy=0;entryX=0.363;entryY=1.019;entryDx=0;entryDy=0;entryPerimeter=0;endArrow=none;endFill=0;strokeWidth=2;" edge="1" parent="1" source="BydsjGx3QfzsrQC-a__q-35" target="BydsjGx3QfzsrQC-a__q-53">
          <mxGeometry relative="1" as="geometry" />
        </mxCell>
        <mxCell id="BydsjGx3QfzsrQC-a__q-59" style="edgeStyle=orthogonalEdgeStyle;rounded=0;orthogonalLoop=1;jettySize=auto;html=1;exitX=0.5;exitY=0;exitDx=0;exitDy=0;entryX=0.628;entryY=1.019;entryDx=0;entryDy=0;entryPerimeter=0;endArrow=none;endFill=0;strokeWidth=2;" edge="1" parent="1" source="BydsjGx3QfzsrQC-a__q-36" target="BydsjGx3QfzsrQC-a__q-53">
          <mxGeometry relative="1" as="geometry" />
        </mxCell>
        <mxCell id="BydsjGx3QfzsrQC-a__q-60" style="edgeStyle=orthogonalEdgeStyle;rounded=0;orthogonalLoop=1;jettySize=auto;html=1;exitX=0.5;exitY=0;exitDx=0;exitDy=0;entryX=0.895;entryY=1.037;entryDx=0;entryDy=0;entryPerimeter=0;endArrow=none;endFill=0;strokeWidth=2;" edge="1" parent="1" source="BydsjGx3QfzsrQC-a__q-37" target="BydsjGx3QfzsrQC-a__q-53">
          <mxGeometry relative="1" as="geometry" />
        </mxCell>
        <mxCell id="BydsjGx3QfzsrQC-a__q-62" style="edgeStyle=orthogonalEdgeStyle;rounded=0;orthogonalLoop=1;jettySize=auto;html=1;exitX=0.5;exitY=0;exitDx=0;exitDy=0;entryX=0.5;entryY=0.876;entryDx=0;entryDy=0;entryPerimeter=0;strokeWidth=2;" edge="1" parent="1" source="BydsjGx3QfzsrQC-a__q-53">
          <mxGeometry relative="1" as="geometry">
            <mxPoint x="270" y="619.54" as="targetPoint" />
          </mxGeometry>
        </mxCell>
        <mxCell id="BydsjGx3QfzsrQC-a__q-73" style="edgeStyle=orthogonalEdgeStyle;rounded=0;orthogonalLoop=1;jettySize=auto;html=1;exitX=0.5;exitY=0;exitDx=0;exitDy=0;strokeWidth=2;endArrow=none;endFill=0;" edge="1" parent="1" source="BydsjGx3QfzsrQC-a__q-63">
          <mxGeometry relative="1" as="geometry">
            <mxPoint x="270" y="520" as="targetPoint" />
          </mxGeometry>
        </mxCell>
        <mxCell id="BydsjGx3QfzsrQC-a__q-63" value="Transformer&lt;div&gt;Encoder-Decoder (T5)&lt;/div&gt;&lt;div&gt;Decoder-Only (Llama)&lt;/div&gt;" style="rounded=1;whiteSpace=wrap;html=1;fillColor=#d5e8d4;strokeColor=#82b366;strokeWidth=3;" vertex="1" parent="1">
          <mxGeometry x="80" y="540" width="380" height="45" as="geometry" />
        </mxCell>
        <mxCell id="BydsjGx3QfzsrQC-a__q-65" value="" style="shape=orEllipse;perimeter=ellipsePerimeter;whiteSpace=wrap;html=1;backgroundOutline=1;strokeWidth=1;" vertex="1" parent="1">
          <mxGeometry x="260" y="600" width="20" height="20" as="geometry" />
        </mxCell>
        <mxCell id="BydsjGx3QfzsrQC-a__q-72" style="edgeStyle=orthogonalEdgeStyle;rounded=0;orthogonalLoop=1;jettySize=auto;html=1;entryX=1;entryY=0.5;entryDx=0;entryDy=0;strokeWidth=2;endArrow=none;endFill=0;" edge="1" parent="1" source="BydsjGx3QfzsrQC-a__q-67" target="BydsjGx3QfzsrQC-a__q-65">
          <mxGeometry relative="1" as="geometry" />
        </mxCell>
        <mxCell id="BydsjGx3QfzsrQC-a__q-67" value="Positional&amp;nbsp;&lt;span style=&quot;background-color: initial;&quot;&gt;Embeddings&lt;/span&gt;" style="text;html=1;align=center;verticalAlign=middle;resizable=0;points=[];autosize=1;fillColor=#f9f7ed;strokeColor=#36393d;rounded=1;" vertex="1" parent="1">
          <mxGeometry x="310" y="595" width="150" height="30" as="geometry" />
        </mxCell>
        <mxCell id="BydsjGx3QfzsrQC-a__q-69" style="edgeStyle=orthogonalEdgeStyle;rounded=0;orthogonalLoop=1;jettySize=auto;html=1;exitX=0.5;exitY=0;exitDx=0;exitDy=0;endArrow=none;endFill=0;strokeWidth=2;entryX=0.5;entryY=1;entryDx=0;entryDy=0;" edge="1" parent="1" source="BydsjGx3QfzsrQC-a__q-65" target="BydsjGx3QfzsrQC-a__q-63">
          <mxGeometry relative="1" as="geometry">
            <mxPoint x="270" y="590" as="targetPoint" />
          </mxGeometry>
        </mxCell>
        <mxCell id="BydsjGx3QfzsrQC-a__q-74" value="(u, i) review" style="text;html=1;align=center;verticalAlign=middle;resizable=0;points=[];autosize=1;strokeColor=none;fillColor=none;" vertex="1" parent="1">
          <mxGeometry x="225" y="450" width="90" height="30" as="geometry" />
        </mxCell>
        <mxCell id="BydsjGx3QfzsrQC-a__q-75" value="" style="sketch=0;outlineConnect=0;fontColor=#232F3E;gradientColor=none;fillColor=#01A88D;strokeColor=none;dashed=0;verticalLabelPosition=bottom;verticalAlign=top;align=center;html=1;fontSize=12;fontStyle=0;aspect=fixed;pointerEvents=1;shape=mxgraph.aws4.sagemaker_model;" vertex="1" parent="1">
          <mxGeometry x="430" y="550.5" width="24" height="24" as="geometry" />
        </mxCell>
        <mxCell id="BydsjGx3QfzsrQC-a__q-77" style="edgeStyle=orthogonalEdgeStyle;rounded=0;orthogonalLoop=1;jettySize=auto;html=1;exitX=0.5;exitY=0;exitDx=0;exitDy=0;strokeWidth=2;" edge="1" parent="1" source="BydsjGx3QfzsrQC-a__q-76">
          <mxGeometry relative="1" as="geometry">
            <mxPoint x="270.27272727272725" y="470" as="targetPoint" />
          </mxGeometry>
        </mxCell>
        <mxCell id="BydsjGx3QfzsrQC-a__q-76" value="&lt;span style=&quot;text-wrap: nowrap;&quot;&gt;Review Tokens&lt;/span&gt;" style="rounded=1;whiteSpace=wrap;html=1;fillColor=#f5f5f5;strokeColor=#666666;strokeWidth=1;fontColor=#333333;" vertex="1" parent="1">
          <mxGeometry x="80" y="490" width="380" height="30" as="geometry" />
        </mxCell>
      </root>
    </mxGraphModel>
  </diagram>
</mxfile>
